<svg height="512pt" viewBox="-53 0 512 512" width="512pt" xmlns="http://www.w3.org/2000/svg"><path d="m288.441406 398.484375-85.773437 68.617187-85.777344-68.617187-49.769531 40.214844 16.953125 73.300781h237.1875l16.949219-73.300781zm0 0"/><path d="m377.015625 187.667969c-1.789063-20.992188-7.300781-40.941407-15.871094-59.175781l24.535157-14.167969-15-25.980469-24.578126 14.191406c-11.789062-16.839844-26.464843-31.511718-43.300781-43.304687l14.1875-24.578125-25.976562-15-14.167969 24.539062c-18.238281-8.574218-38.183594-14.085937-59.175781-15.875v-28.316406h-30v28.316406c-20.992188 1.789063-40.941407 7.300782-59.175781 15.871094l-14.167969-24.535156-25.980469 15 14.191406 24.578125c-16.839844 11.789062-31.515625 26.464843-43.304687 43.300781l-24.578125-14.1875-15 25.980469 24.539062 14.164062c-8.574218 18.238281-14.082031 38.183594-15.875 59.175781h-28.316406v30h28.316406c1.730469 20.289063 6.929688 39.601563 15.011719 57.335938h318.679687c8.082032-17.734375 13.277344-37.046875 15.007813-57.335938h28.316406v-30h-28.316406zm-206.347656 19.332031h-30v-30h30zm47-74.667969h-30v-30h30zm47 74.667969h-30v-30h30zm0 0"/><path d="m16 305v30h27.140625l16.464844 71.203125 57.191406-46.214844 85.871094 68.695313 85.867187-68.695313 57.191406 46.214844 16.464844-71.203125h27.144532v-30zm0 0"/></svg>